<svg xmlns="http://www.w3.org/2000/svg" width="820" height="411" viewBox="0 0 820 411">
  <g fill="none" fill-rule="evenodd" transform="translate(-64 -528)">
    <g transform="translate(0 485)">
      <g transform="translate(65.566 52.782)">
        <rect width="4.309" height="22.192" x="5.54" y=".616" fill="#F272A6" rx="2.155" transform="rotate(-30 7.695 11.713)"/>
        <rect width="4.309" height="22.192" x="45.553" y="11.713" fill="#FB9F6A" rx="2.155" transform="rotate(18 47.708 22.809)"/>
        <rect width="4.309" height="22.192" x="12.927" y="58.563" fill="#7DD9D6" rx="2.155" transform="rotate(16 15.082 69.659)"/>
        <rect width="4.309" height="22.192" x="68.319" y="78.059" fill="#EAD36D" rx="2.155" transform="rotate(53 70.473 89.156)"/>
        <rect width="4.309" height="22.192" x="90.999" y=".165" fill="#92D97D" rx="2.155" transform="rotate(-16 93.154 11.26)"/>
      </g>
      <g transform="rotate(68 -88.28 195.437)">
        <rect width="4.309" height="22.192" x="5.54" fill="#F272A6" rx="2.155" transform="rotate(-30 7.695 11.096)"/>
        <rect width="4.309" height="22.192" x="45.553" y="11.096" fill="#FB9F6A" rx="2.155" transform="rotate(18 47.708 22.192)"/>
        <rect width="4.309" height="22.192" x="12.927" y="57.946" fill="#7DD9D6" rx="2.155" transform="rotate(16 15.082 69.042)"/>
        <rect width="4.309" height="22.192" x="61.558" y="64.727" fill="#EAD36D" rx="2.155" transform="rotate(53 63.713 75.823)"/>
      </g>
      <g transform="translate(176.37 124.906)">
        <rect width="4.309" height="22.192" x="5.252" y="9.455" fill="#F272A6" rx="2.155" transform="rotate(28 7.406 20.551)"/>
        <rect width="4.309" height="22.192" x="68.742" y="-1.135" fill="#FB9F6A" rx="2.155" transform="rotate(-45 70.897 9.961)"/>
        <rect width="4.309" height="22.192" x="29.441" y="77.221" fill="#7DD9D6" rx="2.155" transform="rotate(16 31.595 88.317)"/>
        <rect width="4.309" height="22.192" x="106.389" y="19.275" fill="#7DD9D6" rx="2.155" transform="rotate(16 108.543 30.37)"/>
        <rect width="4.309" height="22.192" x="44.61" y="31.365" fill="#EAD36D" rx="2.155" transform="rotate(34 46.764 42.46)"/>
        <rect width="4.309" height="22.192" x="75.742" y="59.51" fill="#F272A6" rx="2.155" transform="rotate(28 77.896 70.606)"/>
      </g>
      <g transform="translate(204.688 389.362)">
        <rect width="4.309" height="22.192" x="5.252" y="10.688" fill="#F272A6" rx="2.155" transform="rotate(28 7.406 21.784)"/>
        <rect width="4.309" height="22.192" x="68.742" y=".098" fill="#FB9F6A" rx="2.155" transform="rotate(-19 70.897 11.194)"/>
        <rect width="4.309" height="22.192" x="92.978" y="47.797" fill="#92D97D" rx="2.155" transform="rotate(28 95.133 58.893)"/>
      </g>
      <g transform="scale(-1 1) rotate(-71 51.079 443.42)">
        <g transform="translate(51.093 73.357)">
          <rect width="4.309" height="22.192" x="41.86" y="50.549" fill="#FB9F6A" rx="2.155" transform="rotate(-46 44.014 61.645)"/>
          <rect width="4.309" height="22.192" x="9.234" y="97.399" fill="#7DD9D6" rx="2.155" transform="rotate(94 11.388 108.495)"/>
          <rect width="4.309" height="22.192" x="72.891" y=".656" fill="#7DD9D6" rx="2.155" transform="rotate(16 75.045 11.752)"/>
          <rect width="4.309" height="22.192" x="57.865" y="108.495" fill="#EAD36D" rx="2.155" transform="rotate(34 60.02 119.59)"/>
          <rect width="4.309" height="22.192" x="87.306" y="39.001" fill="#92D97D" rx="2.155" transform="rotate(-71 89.46 50.097)"/>
        </g>
        <g transform="translate(261.008)">
          <rect width="4.309" height="22.192" x="5.54" fill="#F272A6" rx="2.155" transform="rotate(-30 7.695 11.096)"/>
          <rect width="4.309" height="22.192" x="45.553" y="11.096" fill="#FB9F6A" rx="2.155" transform="rotate(-50 47.708 22.192)"/>
          <rect width="4.309" height="22.192" x="12.927" y="57.946" fill="#7DD9D6" rx="2.155" transform="rotate(16 15.082 69.042)"/>
          <rect width="4.309" height="22.192" x="61.558" y="69.042" fill="#EAD36D" rx="2.155" transform="rotate(34 63.713 80.138)"/>
        </g>
        <g transform="translate(0 11.096)">
          <rect width="4.309" height="22.192" x="5.54" fill="#F272A6" rx="2.155" transform="rotate(-30 7.695 11.096)"/>
          <rect width="4.309" height="22.192" x="45.553" y="11.096" fill="#FB9F6A" rx="2.155" transform="rotate(-50 47.708 22.192)"/>
          <rect width="4.309" height="22.192" x="12.927" y="57.946" fill="#7DD9D6" rx="2.155" transform="rotate(16 15.082 69.042)"/>
          <rect width="4.309" height="22.192" x="61.558" y="69.042" fill="#EAD36D" rx="2.155" transform="rotate(34 63.713 80.138)"/>
          <rect width="4.309" height="22.192" x="90.999" y="-.452" fill="#92D97D" rx="2.155" transform="rotate(-71 93.154 10.644)"/>
        </g>
        <g transform="translate(139.738 155.961)">
          <rect width="4.309" height="22.192" x="9.26" y="-3.566" fill="#F272A6" rx="2.155" transform="rotate(87 11.414 7.53)"/>
          <rect width="4.309" height="22.192" x="60.095" y="-4.66" fill="#FB9F6A" rx="2.155" transform="rotate(-70 62.25 6.437)"/>
          <rect width="4.309" height="22.192" x="116.349" y="48.824" fill="#92D97D" rx="2.155" transform="rotate(68 118.504 59.92)"/>
        </g>
      </g>
      <rect width="4.309" height="22.192" x="161.313" y="97.937" fill="#FB9F6A" rx="2.155" transform="rotate(-50 163.467 109.033)"/>
      <g transform="rotate(61 -187.306 252.55)">
        <g>
          <rect width="4.309" height="22.192" x="5.54" y=".616" fill="#F272A6" rx="2.155" transform="rotate(-30 7.695 11.713)"/>
          <rect width="4.309" height="22.192" x="45.553" y="11.713" fill="#FB9F6A" rx="2.155" transform="rotate(18 47.708 22.809)"/>
          <rect width="4.309" height="22.192" x="12.927" y="58.563" fill="#7DD9D6" rx="2.155" transform="rotate(90 15.082 69.659)"/>
          <rect width="4.309" height="22.192" x="61.558" y="69.659" fill="#EAD36D" rx="2.155" transform="rotate(34 63.713 80.755)"/>
          <rect width="4.309" height="22.192" x="136.21" y="13.79" fill="#EAD36D" rx="2.155" transform="rotate(61 138.365 24.886)"/>
          <rect width="4.309" height="22.192" x="90.999" y=".165" fill="#92D97D" rx="2.155" transform="rotate(-16 93.154 11.26)"/>
        </g>
        <g transform="translate(92.953 48.083)">
          <rect width="4.309" height="22.192" x="9.636" y="12.78" fill="#F272A6" rx="2.155" transform="rotate(86 11.79 23.876)"/>
          <rect width="4.309" height="22.192" x="18.468" y="69.659" fill="#7DD9D6" rx="2.155" transform="rotate(16 20.622 80.755)"/>
        </g>
      </g>
    </g>
    <g transform="matrix(-1 0 0 1 672 342)">
      <g transform="rotate(68 -88.28 195.437)">
        <rect width="4.309" height="22.192" x="5.54" fill="#F272A6" rx="2.155" transform="rotate(-30 7.695 11.096)"/>
        <rect width="4.309" height="22.192" x="45.553" y="11.096" fill="#FB9F6A" rx="2.155" transform="rotate(18 47.708 22.192)"/>
        <rect width="4.309" height="22.192" x="12.927" y="57.946" fill="#7DD9D6" rx="2.155" transform="rotate(16 15.082 69.042)"/>
        <rect width="4.309" height="22.192" x="61.558" y="64.727" fill="#EAD36D" rx="2.155" transform="rotate(53 63.713 75.823)"/>
      </g>
      <g transform="translate(176.37 124.906)">
        <rect width="4.309" height="22.192" x="29.441" y="77.221" fill="#7DD9D6" rx="2.155" transform="rotate(16 31.595 88.317)"/>
        <rect width="4.309" height="22.192" x="75.742" y="59.51" fill="#F272A6" rx="2.155" transform="rotate(28 77.896 70.606)"/>
      </g>
      <g transform="translate(204.688 389.362)">
        <rect width="4.309" height="22.192" x="5.252" y="10.688" fill="#F272A6" rx="2.155" transform="rotate(28 7.406 21.784)"/>
        <rect width="4.309" height="22.192" x="68.742" y=".098" fill="#FB9F6A" rx="2.155" transform="rotate(-19 70.897 11.194)"/>
        <rect width="4.309" height="22.192" x="17.852" y="69.659" fill="#7DD9D6" rx="2.155" transform="rotate(16 20.006 80.755)"/>
        <rect width="4.309" height="22.192" x="92.978" y="47.797" fill="#92D97D" rx="2.155" transform="rotate(28 95.133 58.893)"/>
      </g>
      <g transform="scale(-1 1) rotate(-71 51.079 443.42)">
        <g transform="translate(51.093 73.357)">
          <rect width="4.309" height="22.192" x="41.86" y="50.549" fill="#FB9F6A" rx="2.155" transform="rotate(-46 44.014 61.645)"/>
          <rect width="4.309" height="22.192" x="9.234" y="97.399" fill="#7DD9D6" rx="2.155" transform="rotate(94 11.388 108.495)"/>
          <rect width="4.309" height="22.192" x="72.891" y=".656" fill="#7DD9D6" rx="2.155" transform="rotate(16 75.045 11.752)"/>
          <rect width="4.309" height="22.192" x="57.865" y="108.495" fill="#EAD36D" rx="2.155" transform="rotate(34 60.02 119.59)"/>
          <rect width="4.309" height="22.192" x="87.306" y="39.001" fill="#92D97D" rx="2.155" transform="rotate(-71 89.46 50.097)"/>
        </g>
        <g transform="translate(0 11.096)">
          <rect width="4.309" height="22.192" x="5.54" fill="#F272A6" rx="2.155" transform="rotate(-30 7.695 11.096)"/>
          <rect width="4.309" height="22.192" x="45.553" y="11.096" fill="#FB9F6A" rx="2.155" transform="rotate(-50 47.708 22.192)"/>
          <rect width="4.309" height="22.192" x="12.927" y="57.946" fill="#7DD9D6" rx="2.155" transform="rotate(16 15.082 69.042)"/>
          <rect width="4.309" height="22.192" x="61.558" y="69.042" fill="#EAD36D" rx="2.155" transform="rotate(34 63.713 80.138)"/>
          <rect width="4.309" height="22.192" x="90.999" y="-.452" fill="#92D97D" rx="2.155" transform="rotate(-71 93.154 10.644)"/>
        </g>
        <g transform="translate(139.738 155.961)">
          <rect width="4.309" height="22.192" x="9.26" y="-3.566" fill="#F272A6" rx="2.155" transform="rotate(87 11.414 7.53)"/>
          <rect width="4.309" height="22.192" x="60.095" y="-4.66" fill="#FB9F6A" rx="2.155" transform="rotate(-70 62.25 6.437)"/>
        </g>
      </g>
      <g transform="rotate(61 -187.306 252.55)">
        <g>
          <rect width="4.309" height="22.192" x="5.54" y=".616" fill="#F272A6" rx="2.155" transform="rotate(-30 7.695 11.713)"/>
          <rect width="4.309" height="22.192" x="45.553" y="11.713" fill="#FB9F6A" rx="2.155" transform="rotate(18 47.708 22.809)"/>
          <rect width="4.309" height="22.192" x="12.927" y="58.563" fill="#7DD9D6" rx="2.155" transform="rotate(90 15.082 69.659)"/>
          <rect width="4.309" height="22.192" x="61.558" y="69.659" fill="#EAD36D" rx="2.155" transform="rotate(34 63.713 80.755)"/>
          <rect width="4.309" height="22.192" x="136.21" y="13.79" fill="#EAD36D" rx="2.155" transform="rotate(61 138.365 24.886)"/>
          <rect width="4.309" height="22.192" x="90.999" y=".165" fill="#92D97D" rx="2.155" transform="rotate(-16 93.154 11.26)"/>
        </g>
        <g transform="translate(92.953 48.083)">
          <rect width="4.309" height="22.192" x="9.636" y="12.78" fill="#F272A6" rx="2.155" transform="rotate(86 11.79 23.876)"/>
          <rect width="4.309" height="22.192" x="69.358" y=".098" fill="#FB9F6A" rx="2.155" transform="rotate(-19 71.512 11.194)"/>
          <rect width="4.309" height="22.192" x="18.468" y="69.659" fill="#7DD9D6" rx="2.155" transform="rotate(16 20.622 80.755)"/>
          <rect width="4.309" height="22.192" x="45.225" y="32.598" fill="#EAD36D" rx="2.155" transform="rotate(34 47.38 43.694)"/>
          <rect width="4.309" height="22.192" x="93.594" y="47.797" fill="#92D97D" rx="2.155" transform="rotate(28 95.748 58.893)"/>
        </g>
      </g>
    </g>
    <g transform="rotate(-154 289.311 275.11)">
      <g transform="translate(64.566 21.952)">
        <rect width="4.309" height="22.184" x="5.54" y=".616" fill="#F272A6" rx="2.155" transform="rotate(-30 7.695 11.708)"/>
        <rect width="4.309" height="22.184" x="45.553" y="11.708" fill="#FB9F6A" rx="2.155" transform="rotate(18 47.708 22.8)"/>
        <rect width="4.309" height="22.184" x="12.927" y="58.542" fill="#7DD9D6" rx="2.155" transform="rotate(16 15.082 69.634)"/>
        <rect width="4.309" height="22.184" x="90.999" y=".165" fill="#92D97D" rx="2.155" transform="rotate(-16 93.154 11.257)"/>
      </g>
      <rect width="4.309" height="22.184" x="61.558" y="69.018" fill="#EAD36D" rx="2.155" transform="scale(-1 1) rotate(-37 -135.89 455.362)"/>
    </g>
    <g transform="matrix(1 0 0 -1 277 1826)">
      <g transform="translate(0 485)">
        <g transform="translate(204.688 389.362)">
          <rect width="4.309" height="22.192" x="5.252" y="10.688" fill="#F272A6" rx="2.155" transform="rotate(28 7.406 21.784)"/>
          <rect width="4.309" height="22.192" x="68.742" y=".098" fill="#FB9F6A" rx="2.155" transform="rotate(-19 70.897 11.194)"/>
          <rect width="4.309" height="22.192" x="17.852" y="69.659" fill="#7DD9D6" rx="2.155" transform="rotate(16 20.006 80.755)"/>
          <rect width="4.309" height="22.192" x="92.978" y="47.797" fill="#92D97D" rx="2.155" transform="rotate(28 95.133 58.893)"/>
        </g>
        <g transform="rotate(61 -187.306 252.55)">
          <rect width="4.309" height="22.192" x="136.21" y="13.79" fill="#EAD36D" rx="2.155" transform="rotate(61 138.365 24.886)"/>
          <g transform="translate(92.953 48.083)">
            <rect width="4.309" height="22.192" x="9.636" y="12.78" fill="#F272A6" rx="2.155" transform="rotate(86 11.79 23.876)"/>
            <rect width="4.309" height="22.192" x="69.358" y=".098" fill="#FB9F6A" rx="2.155" transform="rotate(-19 71.512 11.194)"/>
            <rect width="4.309" height="22.192" x="18.468" y="69.659" fill="#7DD9D6" rx="2.155" transform="rotate(16 20.622 80.755)"/>
            <rect width="4.309" height="22.192" x="45.225" y="32.598" fill="#EAD36D" rx="2.155" transform="rotate(34 47.38 43.694)"/>
            <rect width="4.309" height="22.192" x="93.594" y="47.797" fill="#92D97D" rx="2.155" transform="rotate(28 95.748 58.893)"/>
          </g>
        </g>
      </g>
    </g>
    <g transform="rotate(180 618.5 669)">
      <g transform="matrix(-1 0 0 1 672 377)">
        <g transform="translate(65.566 17.782)">
          <rect width="4.309" height="22.192" x="5.54" y=".616" fill="#F272A6" rx="2.155" transform="rotate(-30 7.695 11.713)"/>
          <rect width="4.309" height="22.192" x="45.553" y="11.713" fill="#FB9F6A" rx="2.155" transform="rotate(18 47.708 22.809)"/>
          <rect width="4.309" height="22.192" x="12.927" y="58.563" fill="#7DD9D6" rx="2.155" transform="rotate(16 15.082 69.659)"/>
          <rect width="4.309" height="22.192" x="68.319" y="78.059" fill="#EAD36D" rx="2.155" transform="rotate(53 70.473 89.156)"/>
          <rect width="4.309" height="22.192" x="90.999" y=".165" fill="#92D97D" rx="2.155" transform="rotate(-16 93.154 11.26)"/>
        </g>
        <g transform="rotate(68 -62.335 177.937)">
          <rect width="4.309" height="22.192" x="5.54" fill="#F272A6" rx="2.155" transform="rotate(-30 7.695 11.096)"/>
          <rect width="4.309" height="22.192" x="45.553" y="11.096" fill="#FB9F6A" rx="2.155" transform="rotate(18 47.708 22.192)"/>
          <rect width="4.309" height="22.192" x="12.927" y="57.946" fill="#7DD9D6" rx="2.155" transform="rotate(16 15.082 69.042)"/>
          <rect width="4.309" height="22.192" x="61.558" y="64.727" fill="#EAD36D" rx="2.155" transform="rotate(53 63.713 75.823)"/>
        </g>
        <g transform="translate(176.37 89.906)">
          <rect width="4.309" height="22.192" x="5.252" y="9.455" fill="#F272A6" rx="2.155" transform="rotate(28 7.406 20.551)"/>
          <rect width="4.309" height="22.192" x="68.742" y="-1.135" fill="#FB9F6A" rx="2.155" transform="rotate(-45 70.897 9.961)"/>
          <rect width="4.309" height="22.192" x="29.441" y="77.221" fill="#7DD9D6" rx="2.155" transform="rotate(16 31.595 88.317)"/>
          <rect width="4.309" height="22.192" x="106.389" y="19.275" fill="#7DD9D6" rx="2.155" transform="rotate(16 108.543 30.37)"/>
          <rect width="4.309" height="22.192" x="44.61" y="31.365" fill="#EAD36D" rx="2.155" transform="rotate(34 46.764 42.46)"/>
          <rect width="4.309" height="22.192" x="75.742" y="59.51" fill="#F272A6" rx="2.155" transform="rotate(28 77.896 70.606)"/>
        </g>
        <g transform="translate(204.688 354.362)">
          <rect width="4.309" height="22.192" x="5.252" y="10.688" fill="#F272A6" rx="2.155" transform="rotate(28 7.406 21.784)"/>
          <rect width="4.309" height="22.192" x="68.742" y=".098" fill="#FB9F6A" rx="2.155" transform="rotate(-19 70.897 11.194)"/>
          <rect width="4.309" height="22.192" x="17.852" y="69.659" fill="#7DD9D6" rx="2.155" transform="rotate(16 20.006 80.755)"/>
          <rect width="4.309" height="22.192" x="92.978" y="47.797" fill="#92D97D" rx="2.155" transform="rotate(28 95.133 58.893)"/>
        </g>
        <g transform="scale(-1 1) rotate(-71 34.255 420.42)">
          <g transform="translate(51.093 62.357)">
            <rect width="4.309" height="22.192" x="41.86" y="50.549" fill="#FB9F6A" rx="2.155" transform="rotate(-46 44.014 61.645)"/>
            <rect width="4.309" height="22.192" x="9.234" y="97.399" fill="#7DD9D6" rx="2.155" transform="rotate(94 11.388 108.495)"/>
            <rect width="4.309" height="22.192" x="72.891" y=".656" fill="#7DD9D6" rx="2.155" transform="rotate(16 75.045 11.752)"/>
            <rect width="4.309" height="22.192" x="57.865" y="108.495" fill="#EAD36D" rx="2.155" transform="rotate(34 60.02 119.59)"/>
            <rect width="4.309" height="22.192" x="87.306" y="39.001" fill="#92D97D" rx="2.155" transform="rotate(-71 89.46 50.097)"/>
          </g>
          <g transform="translate(270.008 2)">
            <rect width="4.309" height="22.192" x="36.553" y="-1.904" fill="#FB9F6A" rx="2.155" transform="rotate(-50 38.708 9.192)"/>
            <rect width="4.309" height="22.192" x="3.927" y="44.946" fill="#7DD9D6" rx="2.155" transform="rotate(16 6.082 56.042)"/>
            <rect width="4.309" height="22.192" x="52.558" y="56.042" fill="#EAD36D" rx="2.155" transform="rotate(34 54.713 67.138)"/>
          </g>
          <g transform="translate(0 .096)">
            <rect width="4.309" height="22.192" x="12.927" y="57.946" fill="#7DD9D6" rx="2.155" transform="rotate(16 15.082 69.042)"/>
            <rect width="4.309" height="22.192" x="61.558" y="69.042" fill="#EAD36D" rx="2.155" transform="rotate(34 63.713 80.138)"/>
          </g>
          <g transform="translate(139.738 144.961)">
            <rect width="4.309" height="22.192" x="9.26" y="-3.566" fill="#F272A6" rx="2.155" transform="rotate(87 11.414 7.53)"/>
            <rect width="4.309" height="22.192" x="60.095" y="-4.66" fill="#FB9F6A" rx="2.155" transform="rotate(-70 62.25 6.437)"/>
            <rect width="4.309" height="22.192" x="116.349" y="48.824" fill="#92D97D" rx="2.155" transform="rotate(68 118.504 59.92)"/>
          </g>
        </g>
        <rect width="4.309" height="22.192" x="161.313" y="62.937" fill="#FB9F6A" rx="2.155" transform="rotate(-50 163.467 74.033)"/>
        <g transform="rotate(-71 332.115 -1.487)">
          <rect width="4.309" height="22.192" x="5.413" y="-.148" fill="#F272A6" rx="2.155" transform="rotate(-30 7.567 10.948)"/>
          <rect width="4.309" height="22.192" x="97.878" y="27.74" fill="#FB9F6A" rx="2.155" transform="rotate(-50 100.032 38.836)"/>
          <rect width="4.309" height="22.192" x="65.252" y="74.59" fill="#7DD9D6" rx="2.155" transform="rotate(16 67.406 85.686)"/>
          <rect width="4.309" height="22.192" x="143.324" y="16.193" fill="#92D97D" rx="2.155" transform="rotate(-71 145.478 27.289)"/>
        </g>
        <g transform="rotate(61 -157.597 235.05)">
          <g>
            <rect width="4.309" height="22.192" x="5.54" y=".616" fill="#F272A6" rx="2.155" transform="rotate(-30 7.695 11.713)"/>
            <rect width="4.309" height="22.192" x="45.553" y="11.713" fill="#FB9F6A" rx="2.155" transform="rotate(18 47.708 22.809)"/>
            <rect width="4.309" height="22.192" x="12.927" y="58.563" fill="#7DD9D6" rx="2.155" transform="rotate(90 15.082 69.659)"/>
            <rect width="4.309" height="22.192" x="61.558" y="69.659" fill="#EAD36D" rx="2.155" transform="rotate(34 63.713 80.755)"/>
            <rect width="4.309" height="22.192" x="136.21" y="13.79" fill="#EAD36D" rx="2.155" transform="rotate(61 138.365 24.886)"/>
            <rect width="4.309" height="22.192" x="90.999" y=".165" fill="#92D97D" rx="2.155" transform="rotate(-16 93.154 11.26)"/>
          </g>
          <g transform="translate(92.953 48.083)">
            <rect width="4.309" height="22.192" x="9.636" y="12.78" fill="#F272A6" rx="2.155" transform="rotate(86 11.79 23.876)"/>
            <rect width="4.309" height="22.192" x="69.358" y=".098" fill="#FB9F6A" rx="2.155" transform="rotate(-19 71.512 11.194)"/>
            <rect width="4.309" height="22.192" x="18.468" y="69.659" fill="#7DD9D6" rx="2.155" transform="rotate(16 20.622 80.755)"/>
            <rect width="4.309" height="22.192" x="45.225" y="32.598" fill="#EAD36D" rx="2.155" transform="rotate(34 47.38 43.694)"/>
          </g>
        </g>
      </g>
      <g transform="rotate(-154 289.311 275.11)">
        <g transform="translate(64.566 21.952)">
          <rect width="4.309" height="22.184" x="5.54" y=".616" fill="#F272A6" rx="2.155" transform="rotate(-30 7.695 11.708)"/>
          <rect width="4.309" height="22.184" x="45.553" y="11.708" fill="#FB9F6A" rx="2.155" transform="rotate(18 47.708 22.8)"/>
          <rect width="4.309" height="22.184" x="12.927" y="58.542" fill="#7DD9D6" rx="2.155" transform="rotate(16 15.082 69.634)"/>
          <rect width="4.309" height="22.184" x="68.319" y="78.032" fill="#EAD36D" rx="2.155" transform="rotate(53 70.473 89.124)"/>
        </g>
      </g>
    </g>
  </g>
</svg>
