<svg xmlns="http://www.w3.org/2000/svg" width="18" height="18" viewBox="0 0 18 18">
  <g fill="none" fill-rule="evenodd">
    <circle cx="9" cy="9" r="9" fill="#13BE24"/>
    <g fill="#FFF" transform="translate(4.5 3)">
      <path d="M7.90625,8.828125 C7.59374844,9.29166898 7.18229422,9.64322797 6.671875,9.8828125 C6.16145578,10.122397 5.51562891,10.2421875 4.734375,10.2421875 C3.41145172,10.2421875 2.41146172,9.88151402 1.734375,9.16015625 C1.05728828,8.43879848 0.71875,7.36979875 0.71875,5.953125 C0.71875,4.57290977 1.04687172,3.49739969 1.703125,2.7265625 C2.35937828,1.95572531 3.34374344,1.5703125 4.65625,1.5703125 C5.35937852,1.5703125 5.98567434,1.68489469 6.53515625,1.9140625 C7.08463816,2.14323031 7.50260273,2.49739344 7.7890625,2.9765625 L6.2890625,4.046875 C6.10676992,3.80208211 5.89323039,3.62109434 5.6484375,3.50390625 C5.40364461,3.38671816 5.08854359,3.328125 4.703125,3.328125 C4.01562156,3.328125 3.52604313,3.53906039 3.234375,3.9609375 C2.94270687,4.38281461 2.796875,5.03645391 2.796875,5.921875 C2.796875,6.80729609 2.94661309,7.45442504 3.24609375,7.86328125 C3.54557441,8.27213746 4.05728805,8.4765625 4.78125,8.4765625 C5.09375156,8.4765625 5.38020703,8.43229211 5.640625,8.34375 C5.90104297,8.25520789 6.14843633,8.05989734 6.3828125,7.7578125 L7.90625,8.828125 Z"/>
      <rect width="1.5" height="3" x="4"/>
      <rect width="1.5" height="3" x="4" y="9"/>
    </g>
  </g>
</svg>
