<svg xmlns="http://www.w3.org/2000/svg" width="10" height="10" viewBox="0 0 10 10">
  <g fill="none" fill-rule="evenodd">
    <path fill="#000" fill-opacity=".25" d="M5,10 C2.23857625,10 0,7.76142375 0,5 C0,2.23857625 2.23857625,0 5,0 C7.76142375,0 10,2.23857625 10,5 C10,7.76142375 7.76142375,10 5,10 Z M4.29289322,5 L2.87867966,6.41421356 C2.68341751,6.60947571 2.68341751,6.9260582 2.87867966,7.12132034 C3.0739418,7.31658249 3.39052429,7.31658249 3.58578644,7.12132034 L5,5.70710678 L6.41421356,7.12132034 C6.60947571,7.31658249 6.9260582,7.31658249 7.12132034,7.12132034 C7.31658249,6.9260582 7.31658249,6.60947571 7.12132034,6.41421356 L5.70710678,5 L7.12132034,3.58578644 C7.31658249,3.39052429 7.31658249,3.0739418 7.12132034,2.87867966 C6.9260582,2.68341751 6.60947571,2.68341751 6.41421356,2.87867966 L5,4.29289322 L3.58578644,2.87867966 C3.39052429,2.68341751 3.0739418,2.68341751 2.87867966,2.87867966 C2.68341751,3.0739418 2.68341751,3.39052429 2.87867966,3.58578644 L4.29289322,5 Z"/>
    <path fill="#FFF" fill-opacity=".5" d="M4.29289322,5 L2.87867966,6.41421356 C2.68341751,6.60947571 2.68341751,6.9260582 2.87867966,7.12132034 C3.0739418,7.31658249 3.39052429,7.31658249 3.58578644,7.12132034 L5,5.70710678 L6.41421356,7.12132034 C6.60947571,7.31658249 6.9260582,7.31658249 7.12132034,7.12132034 C7.31658249,6.9260582 7.31658249,6.60947571 7.12132034,6.41421356 L5.70710678,5 L7.12132034,3.58578644 C7.31658249,3.39052429 7.31658249,3.0739418 7.12132034,2.87867966 C6.9260582,2.68341751 6.60947571,2.68341751 6.41421356,2.87867966 L5,4.29289322 L3.58578644,2.87867966 C3.39052429,2.68341751 3.0739418,2.68341751 2.87867966,2.87867966 C2.68341751,3.0739418 2.68341751,3.39052429 2.87867966,3.58578644 L4.29289322,5 Z"/>
  </g>
</svg>
