<svg xmlns="http://www.w3.org/2000/svg" width="18" height="15" viewBox="0 0 18 15">
  <path fill="#FF3172" d="M30.1540354,16.0219768 C29.3598049,15.3654804 28.3407172,15.0039735 27.2851172,15.0039735 C26.0650316,15.0039735 24.8836273,15.4905617 24.0449315,16.3375723 C23.8938216,16.4901281 23.7524724,16.6538907 23.6205224,16.8310291 C22.59312,15.4648948 20.8803006,14.7628485 19.179411,15.0722983 C17.7713419,15.3278837 16.665131,16.1025928 15.8904218,17.3725663 C14.7993942,19.1645557 14.7104635,20.8921968 15.6265218,22.5092169 C16.1170866,23.3761103 16.7533386,24.2191442 17.5696211,25.0856761 C19.0666209,26.6777522 20.8394504,28.1895738 23.1516481,29.843829 C23.2984198,29.9475815 23.4560368,30 23.6197994,30 C23.8732157,30 24.0449315,29.8720266 24.1295241,29.8087629 C26.1836059,28.3428527 27.8682277,26.930807 29.2802734,25.4912868 C30.079565,24.6771734 30.9862242,23.676161 31.6492277,22.4275164 C31.9330106,21.8928478 32.2572822,21.1741722 32.2373993,20.3531902 C32.195103,18.5865063 31.4941413,17.1292722 30.1540354,16.0219768 Z" transform="translate(-15 -15)"/>
</svg>
