<svg xmlns="http://www.w3.org/2000/svg" width="18" height="18" viewBox="0 0 18 18">
  <g fill="none" fill-rule="evenodd">
    <circle cx="9" cy="9" r="9" fill="#FF3172"/>
    <path fill="#FFF" fill-rule="nonzero" d="M12.7909257,5.59285344 C12.330189,5.21201685 11.7390115,5.00230507 11.1266531,5.00230507 C10.4188758,5.00230507 9.73353771,5.28457712 9.24700639,5.77593182 C9.15934686,5.86443019 9.07734956,5.95942963 9.00080476,6.0621884 C8.40480388,5.26968759 7.41118948,4.86242731 6.42449556,5.0419406 C5.60766818,5.19020682 4.96595014,5.63961917 4.5165378,6.37633664 C3.88362765,7.41587793 3.83203855,8.41809052 4.3634482,9.35613131 C4.64802708,9.85902015 5.01711981,10.348068 5.49064901,10.8507472 C6.35906548,11.7743178 7.38749205,12.6513325 8.72880858,13.6109736 C8.81395156,13.6711609 8.9053859,13.7015691 9.00038534,13.7015691 C9.14739329,13.7015691 9.24700639,13.6273311 9.29607894,13.5906315 C10.4876613,12.7402503 11.4649182,11.9211161 12.2840524,11.0860438 C12.7477251,10.6137728 13.2736822,10.0330809 13.6582937,9.30873644 C13.8229174,8.99857272 14.0110289,8.58166571 13.9994947,8.10541026 C13.9749584,7.0805488 13.5683273,6.23520062 12.7909257,5.59285344 Z"/>
  </g>
</svg>
