<svg xmlns="http://www.w3.org/2000/svg" width="8" height="14" viewBox="0 0 8 14">
  <g fill="#AEAEAE" fill-rule="evenodd">
    <path d="M4.20159151 2.23460205C4.09037382 2.11690643 3.9148269 2.11185587 3.79883663 2.23460205L1.43386073 4.73732705C1.1038965 5.0865102.573077798 5.08649672.245670915 4.74001987-.0840185888 4.39112745-.0805967086 3.83058745.248215522 3.4826234L3.21367222.344442308C3.64806729-.115254299 4.35319298-.114373695 4.78675591.344442308L7.75221261 3.4826234C8.08217685 3.83180655 8.0821641 4.39354302 7.75475722 4.74001987 7.42506772 5.08891229 6.89537964 5.0852911 6.56656741 4.73732705L4.20159151 2.23460205zM4.20159151 11.765398C4.09037382 11.8830936 3.9148269 11.8881441 3.79883663 11.765398L1.43386073 9.26267295C1.1038965 8.9134898.573077798 8.91350328.245670915 9.25998013-.0840185888 9.60887255-.0805967086 10.1694126.248215522 10.5173766L3.21367222 13.6555577C3.64806729 14.1152543 4.35319298 14.1143737 4.78675591 13.6555577L7.75221261 10.5173766C8.08217685 10.1681935 8.0821641 9.60645698 7.75475722 9.25998013 7.42506772 8.91108771 6.89537964 8.9147089 6.56656741 9.26267295L4.20159151 11.765398z"/>
  </g>
</svg>
